<svg id="logo" xmlns="http://www.w3.org/2000/svg" fill="currentColor" viewBox="0 0 24 24">
  <path d="M20 11.9h-2c0-1.5-1.3-2.6-3-2.6H5c-1.7 0-3 1.2-3 2.6v2.6c0 .5.4.9 1 .9s1-.4 1-.9v-2.6c0-.5.4-.9 1-.9h10c.6 0 1 .4 1 .9v3.5c0 2.2-1.8 4-4.2 4.4-.5.1-.9.5-.8 1 .1.5.6.8 1.2.7a7.2 7.2 0 0 0 5.2-3.4H20c2.3 0 4-1.3 4-3.1s-1.7-3.1-4-3.1zm0 4.4h-2.1l.1-.9v-1.8h2c.7 0 2 .3 2 1.3 0 .9-1 1.4-2 1.4z"/>
  <path d="M5.1 21.6h.7c1.3-.1 3.8-.7 4.1-3.4.1-.6-.5-1.1-1.2-.9A4.3 4.3 0 0 0 5.5 20a5.4 5.4 0 0 0-4.4-3.7 1 1 0 0 0-1.1.9c.3 3.6 3.6 4.3 5.1 4.4zm13.9.9H1c-.6 0-1 .4-1 .9s.4.9 1 .9h18c.6 0 1-.4 1-.9s-.4-.9-1-.9zM10.4 6.1c.7 0 1.3-.3 1.7-.7 1-1 1-2.5 0-3.5L10.4 0 8.7 1.8c-1 1-1 2.5 0 3.5.4.5 1.1.8 1.7.8z"/>
</svg>
