<svg xmlns="http://www.w3.org/2000/svg" width="24" height="24" viewBox="0 0 24 24">
	<path d="M17.5 4.4c-2.8 5-5.6 10.1-8.5 15.2l-.7 1.2c0 .1-.1.2-.3.2-.2 0-1.5-.8-1.8-.9-.1-.1-.2-.3-.2-.4 0-.2.5-.9.6-1.2C4 17.3 1.8 15.3.3 12.9c-.2-.2-.3-.6-.3-.9 0-.3.1-.7.3-.9C2.9 7 7.1 4.3 12 4.3c.8 0 1.6.1 2.4.2l.7-1.3c.1-.1.2-.2.4-.2s1.5.8 1.8.9c.1.1.2.2.2.4v.1zm-9 10.7A5.8 5.8 0 0 1 6 10.3c0-1.1.3-2.1.8-3C4.7 8.3 3 10 1.7 12c1.4 2.2 3.4 4 5.7 5l1.1-1.9zM12 6.2c-2.2 0-4.1 1.8-4.1 4.1 0 .3.3.6.6.6s.6-.3.6-.6c0-1.5 1.3-2.8 2.8-2.8.3 0 .6-.3.6-.6.1-.4-.2-.7-.5-.7zm11.7 6.7c-.4.7-.9 1.3-1.5 1.9-2.6 3-6.2 4.8-10.3 4.8l1-1.8c3.9-.3 7.2-2.7 9.3-5.9-1-1.5-2.3-2.9-3.8-3.9l.8-1.5c1.7 1.1 3.3 2.8 4.4 4.5.2.3.3.6.3.9s0 .7-.2 1zm-9.6 3 3.7-6.7c.2.3.2.7.2 1.1 0 2.5-1.5 4.7-3.9 5.6z"/>
</svg>
