<svg xmlns="http://www.w3.org/2000/svg" width="24" height="24" viewBox="0 0 24 24">
  <path d="M16.2 10.2a6 6 0 0 1-8.4 0 6 6 0 0 1 0-8.4c2.3-2.3 6.1-2.3 8.4 0s2.3 6 0 8.4q0-.15 0 0m-4.2-7c-.7 0-1.4.3-1.9.8a2.6 2.6 0 0 0 0 3.8c1 1.1 2.7 1.1 3.8 0 1.1-1 1.1-2.7 0-3.8-.5-.5-1.2-.8-1.9-.8m6.3 8.7 1.7 2.4c.1.1.1.3-.1.4-1.5 1.2-3.2 2-5 2.4l3.4 6.5c.1.2 0 .4-.2.4h-3.6c-.1 0-.2-.1-.3-.2L12 18.5l-2.3 5.4c0 .1-.1.2-.3.2H5.9c-.2 0-.3-.2-.2-.4L9 17.1c-1.8-.4-3.5-1.3-5-2.4-.1-.1-.1-.3-.1-.4l1.7-2.4c.1-.1.3-.2.4-.1 1.6 1.4 3.7 2.3 5.8 2.3s4.2-.9 5.8-2.3c.4 0 .6 0 .7.1"/>
</svg>
