<svg xmlns="http://www.w3.org/2000/svg" width="24" height="24" viewBox="0 0 24 24">
  <path d="M24 11.7c0 6.5-5.3 11.7-11.8 11.7-2 0-4-.5-5.7-1.5L0 24l2.1-6.3C1 15.9.4 13.8.4 11.7.5 5.3 5.7 0 12.2 0S24 5.2 24 11.7M12.2 1.9a9.9 9.9 0 0 0-9.9 9.8c0 2.1.7 4.1 1.9 5.8L3 21.1l3.8-1.2c1.6 1.1 3.5 1.6 5.5 1.6 5.5 0 9.9-4.4 9.9-9.8s-4.5-9.8-10-9.8m6 12.5q-.15-.15-.6-.3c-.3-.2-1.7-.8-2-.9-.2-.2-.4-.2-.6.1-.3.4-.6.8-.9 1.1-.2.2-.3.2-.6.1-.3-.2-1.2-.5-2.3-1.4-.6-.6-1.2-1.2-1.6-2-.2-.3 0-.5.1-.6l.5-.5c.1-.2.2-.3.3-.5s.1-.4 0-.5l-1-2.1c-.3-.6-.5-.5-.7-.5h-.6c-.2 0-.5.1-.7.3-.3.3-1 1-1 2.4s1 2.8 1.2 3 2 3.2 4.9 4.3 2.9.8 3.5.7c.5-.1 1.7-.7 2-1.4.1-.6.1-1.2.1-1.3"/>
</svg>
